<svg xmlns="http://www.w3.org/2000/svg" viewBox="0 0 97 57" class="w-24 h-14 opacity-50 hover:opacity-100 grayscale hover:grayscale-0 transition"> <path d="M.5.5h96v56H.5z" style="fill: #ffffff;"></path> <path d="M83.86 20.77c-.24-.36-.53-.6-1.75-.69-.32-.03-1.37-.06-3.13-.06-4.64 0-7.78 1.4-9.4 4.19.44-2.79-2.27-4.19-8.16-4.19-6.91 0-11.23 2.79-12.95 8.36-.63 2.08-.71 3.76-.2 5.09l-1.63.11c-1.28.11-2.95.18-3.98.18-2.53 0-4.1-.42-4.71-1.28-.54-.77-.5-2.18.15-4.25 1.05-3.42 3.67-4.95 7.84-4.95 2.17 0 4.28.23 4.28.23.29-.02.42-.32.39-.57l-.05-.33-.15-1.14c-.11-.75-.66-1.2-1.69-1.34-.93-.06-1.64-.11-2.67-.11h-.06c-5.47.02-9.28 1.81-11.41 5.38.8-3.58-1.73-5.38-7.59-5.38-3.25 0-5.59.09-7 .27-1.08.14-1.75.59-1.99 1.34l-.47 1.48c-.09.27.05.41.39.41h.02c.26-.03 1.25-.14 2.94-.27 2.24-.18 3.9-.27 4.98-.27 3.22 0 4.58.81 4.07 2.42-.11.36-.36.57-.72.66-3.04.51-5.47.87-7.26 1.08-5.03.65-7.94 2.21-8.72 4.7-1.07 3.43 1.61 5.15 8.07 5.15 3.22 0 5.92-.2 8.1-.56 1.26-.21 1.9-.53 2.15-1.34l1.2-3.82c-.12 3.82 2.56 5.75 8.04 5.75 2.38 0 4.64-.08 5.69-.26 1.13-.2 1.67-.44 1.91-1.29l.24-1.2c1.17 1.82 3.73 2.74 7.69 2.74 4.19 0 6.61-.12 7.32-.35.59-.18.95-.48 1.07-.9.03-.08.05-.15.05-.24l.5-1.63c.09-.29-.05-.42-.39-.41l-2.68.14c-1.79.09-3.18.15-4.19.15-1.9 0-3.21-.14-3.91-.39-1.05-.41-1.57-1.22-1.51-2.44l8.48-1.08c3.79-.48 6.34-1.66 7.62-3.51l-2.88 10c-.06.2-.03.35.06.45.11.12.29.18.56.18h3.51c.62 0 .83-.32.9-.59l3.1-10.8c.41-1.42 1.72-2.11 3.99-2.11 2.06 0 3.61.02 4.59.06h.08c.2 0 .54-.08.72-.54l.54-1.48c.14-.27.12-.51-.03-.74ZM27.33 33.76c-1.1.17-2.67.26-4.73.26-3.57 0-5.12-.72-4.67-2.15.33-1.04 1.26-1.66 2.82-1.87l8.1-1.08-1.52 4.85Zm37.48-8.75c-.35 1.1-1.93 1.87-4.76 2.27l-6.76.96.17-.56c.56-1.82 1.36-3.06 2.38-3.72s2.7-.99 5.01-.99c3.06 0 4.37.68 3.96 2.03Z" style="fill: #83b23e;"></path> </svg>