<svg xmlns="http://www.w3.org/2000/svg" viewBox="0 0 97 57" class="w-24 h-14 opacity-50 hover:opacity-100 grayscale hover:grayscale-0 transition"> <path d="M.5.5h96v56H.5z" style="fill: #ffffff;"></path> <path d="M21.37 18.08c1.08-1.29 1.78-3.1 1.6-4.88-1.55.05-3.4 1.03-4.51 2.32-.99 1.15-1.85 2.98-1.62 4.72 1.69.14 3.45-.87 4.53-2.16m7.96 17.55c-.05.12-.63 2.18-2.11 4.34-1.27 1.85-2.6 3.73-4.69 3.75-2.04.05-2.7-1.22-5.05-1.22s-3.07 1.17-5.02 1.24c-2.02.07-3.54-2.02-4.83-3.87C5 36.07 3.01 29.15 5.68 24.48c1.34-2.32 3.73-3.8 6.34-3.83 1.97-.05 3.85 1.34 5.05 1.34s3.47-1.64 5.84-1.41c1.01.05 3.8.4 5.59 3.03-.14.09-3.33 1.95-3.31 5.82.07 4.62 4.11 6.17 4.15 6.2M45.68 26.39l-.63-1.97c-.07-.21-.19-.68-.38-1.43h-.02c-.07.33-.19.8-.35 1.43l-.63 1.97h2.02m2.23 3.14h-1.29l-.7-2.21h-2.46l-.68 2.21h-1.27l2.44-7.56h1.5l2.46 7.56ZM53.26 29.53H52.2l-.07-.82h-.02c-.38.63-.96.96-1.74.96-.54 0-.96-.16-1.29-.52-.38-.4-.56-1.03-.56-1.85v-3.22h1.2v3c0 1.06.35 1.57 1.08 1.57.54 0 .92-.26 1.13-.8.05-.14.07-.28.07-.47v-3.33h1.2v3.9c.05.52.05 1.06.07 1.57M57.51 24.98h-1.34v2.65c0 .68.23 1.01.7 1.01.21 0 .4-.02.54-.05l.02.92c-.23.09-.56.14-.94.14-.47 0-.84-.14-1.13-.45-.26-.31-.4-.77-.4-1.48v-2.75h-.8v-.92h.8v-.99l1.2-.35v1.36h1.34v.89M63.28 29.53h-1.2v-3.1c0-.99-.38-1.45-1.1-1.45-.56 0-.94.28-1.15.84-.05.12-.05.26-.05.45v3.29h-1.2V21.6h1.2v3.29h.02c.38-.59.94-.89 1.64-.89.49 0 .92.16 1.24.49.42.42.61 1.01.61 1.83v3.22M68.47 26.81c0-.49-.12-.94-.33-1.29-.26-.42-.61-.66-1.08-.66-.49 0-.87.21-1.1.66-.21.35-.33.8-.33 1.31s.09.94.33 1.29c.26.42.63.66 1.1.66s.82-.21 1.08-.66c.23-.4.33-.82.33-1.31m1.27-.05c0 .84-.23 1.53-.73 2.07-.49.56-1.17.82-1.99.82s-1.43-.26-1.92-.8c-.47-.54-.7-1.2-.7-2.02s.23-1.53.73-2.07 1.15-.8 1.97-.8 1.45.26 1.92.8c.49.52.73 1.2.73 1.99ZM73.7 25.14c-.12-.02-.26-.02-.38-.02-.42 0-.77.16-.99.47-.21.28-.31.63-.31 1.08v2.86h-1.2V25.8c0-.63 0-1.2-.02-1.71h1.06l.05 1.06h.02c.14-.35.33-.66.61-.87.28-.19.56-.28.87-.28.12 0 .21 0 .31.02v1.13M75.89 29.53h-1.2v-5.47h1.2v5.47Zm.14-7.09c0 .21-.07.4-.21.52-.14.14-.33.21-.54.21s-.38-.07-.52-.21-.21-.31-.21-.52.07-.38.21-.52.31-.21.52-.21.38.07.54.21c.14.14.21.31.21.52ZM80.56 27.96c0 .52-.19.92-.56 1.22s-.89.47-1.55.47c-.61 0-1.15-.12-1.57-.38l.26-.89c.42.26.87.38 1.34.38.61 0 .94-.23.94-.68 0-.21-.07-.38-.21-.49s-.38-.26-.73-.38c-.96-.35-1.45-.87-1.45-1.57 0-.47.19-.87.54-1.17S78.39 24 79 24c.54 0 .99.12 1.38.33l-.26.87c-.35-.21-.73-.31-1.1-.31-.26 0-.45.07-.59.19s-.21.28-.21.47.07.33.23.47c.12.12.38.23.75.38.89.28 1.36.84 1.36 1.57M85.04 26.25c0-.35-.07-.68-.23-.94-.21-.33-.54-.49-.96-.49-.4 0-.73.16-.96.49-.21.26-.33.59-.35.94h2.51m1.17.31c0 .21-.02.4-.05.54h-3.66c.02.54.19.94.54 1.24.31.26.7.38 1.2.38.54 0 1.03-.09 1.48-.26l.19.84c-.52.23-1.13.33-1.83.33-.84 0-1.5-.26-1.99-.75s-.73-1.17-.73-2.02.23-1.5.68-2.07c.47-.59 1.1-.87 1.9-.87s1.38.28 1.78.87c.33.52.49 1.08.49 1.76ZM91.05 27.23v-.92c0-.16 0-.28-.02-.38-.07-.28-.21-.54-.45-.73-.23-.19-.49-.31-.8-.31-.45 0-.8.19-1.06.54s-.4.82-.4 1.38.12.96.38 1.31.61.54 1.06.54c.4 0 .7-.14.96-.45.21-.28.33-.61.33-1.01m1.27 2.3h-1.08l-.05-.87h-.02c-.35.66-.94.99-1.76.99-.66 0-1.2-.26-1.64-.77-.42-.52-.66-1.17-.66-2.02 0-.89.23-1.6.7-2.14.47-.52 1.03-.75 1.69-.75.73 0 1.24.23 1.55.73v-3.14h1.2v6.48c.02.56.02 1.06.07 1.5ZM45.68 37.04c0-.87-.52-1.29-1.55-1.31-.4 0-.68.02-.87.07v2.56h.84c.47 0 .87-.12 1.15-.38.28-.23.42-.54.42-.94m1.48 5.4h-1.24c-.12-.21-.28-.82-.49-1.81-.09-.52-.26-.87-.47-1.08-.21-.21-.52-.31-.92-.31h-.75v3.17h-1.2v-7.46c.56-.09 1.2-.16 1.97-.16 1.03 0 1.78.21 2.25.61.42.35.63.84.63 1.5 0 .47-.14.87-.42 1.22-.26.31-.56.54-.96.68v.02c.52.19.87.7 1.06 1.5.14.63.26 1.08.33 1.31.07.42.14.68.21.8ZM51.43 39.15c0-.35-.07-.68-.23-.94-.21-.33-.54-.52-.96-.52-.4 0-.73.16-.96.49-.21.26-.33.59-.35.94h2.51m1.17.33c0 .21-.02.4-.05.54h-3.64c.02.54.19.94.52 1.24.31.26.7.38 1.2.38.54 0 1.03-.09 1.48-.26l.19.84c-.52.21-1.13.33-1.83.33-.84 0-1.5-.26-1.99-.75s-.73-1.17-.73-1.99.23-1.5.68-2.07c.47-.59 1.1-.87 1.92-.87.77 0 1.38.31 1.78.87.31.49.47 1.06.47 1.74ZM57 40.87c0 .52-.19.92-.56 1.22s-.89.47-1.55.47-1.15-.12-1.6-.38l.26-.89c.42.23.87.38 1.34.38.63 0 .94-.23.94-.68 0-.21-.07-.38-.21-.49-.14-.14-.38-.26-.73-.38-.96-.35-1.45-.89-1.45-1.57 0-.47.19-.87.54-1.17s.84-.47 1.43-.47c.54 0 1.01.12 1.38.33l-.26.87c-.35-.21-.73-.31-1.1-.31-.26 0-.45.07-.59.19s-.21.28-.21.47.07.33.21.47c.12.12.38.23.75.38.94.28 1.41.84 1.41 1.57M61.5 39.15c0-.35-.07-.68-.23-.94-.21-.33-.54-.52-.96-.52-.4 0-.73.16-.96.49-.21.26-.33.59-.35.94h2.51m1.15.33c0 .21-.02.4-.05.54h-3.64c.02.54.19.94.54 1.24.31.26.7.38 1.2.38.54 0 1.03-.09 1.48-.26l.19.84c-.52.21-1.13.33-1.83.33-.84 0-1.5-.26-1.99-.75s-.73-1.17-.73-1.99.21-1.5.68-2.07c.47-.59 1.1-.87 1.9-.87s1.38.31 1.78.87c.31.49.47 1.06.47 1.74ZM63.73 34.48h1.2v7.96h-1.2zM66.38 34.48h1.2v7.96h-1.2zM72.32 39.15c0-.35-.07-.68-.23-.94-.21-.33-.54-.52-.96-.52-.4 0-.73.16-.96.49-.21.26-.33.59-.35.94h2.51m1.15.33c0 .21-.02.4-.05.54h-3.66c.02.54.19.94.54 1.24.31.26.7.38 1.2.38.54 0 1.03-.09 1.48-.26l.19.84c-.52.21-1.13.33-1.83.33-.84 0-1.5-.26-1.99-.75s-.73-1.17-.73-1.99.23-1.5.68-2.07c.47-.59 1.1-.87 1.9-.87s1.38.31 1.78.87c.33.49.49 1.06.49 1.74ZM77.44 38.05c-.12-.02-.26-.02-.38-.02-.42 0-.75.16-.99.49-.21.28-.31.63-.31 1.08v2.86h-1.2v-3.73c0-.63 0-1.2-.02-1.71h1.06l.05 1.06h.02c.12-.35.33-.63.61-.87.28-.19.56-.28.87-.28.12 0 .21 0 .31.02v1.1" style="fill: #060606;"></path> </svg>