<svg xmlns="http://www.w3.org/2000/svg" viewBox="0 0 97 57" class="w-24 h-14 opacity-50 hover:opacity-100 grayscale hover:grayscale-0 transition"> <path style="fill: #fff;" d="M.5.5h96v56H.5z"></path> <path style="fill: #285089;" d="M15.47 24.78 7.6 36.96h5.38l7.57-11.64-5.08-.54zM15.65 24.51s1.86-3.03 2.32-3.62c.44-.61 1.02-.86 1.64-.86h8.11v4.12s.41-1.58 1.14-2.33c.68-.71 1.59-1.69 3.67-1.82h15.29v4.52H15.65ZM89.4 24.52V20H73.04c-2.07.13-2.99 1.11-3.67 1.82-.73.75-1.13 2.33-1.13 2.33v.36h21.17ZM48.62 20.01h4.57v4.49h-4.57zM63.63 20.01h4.57v4.49h-4.57zM68.2 26.13l-4.49-.27v5.21s-.01 1.5-1.48 1.5h-7.72s-1.3-.1-1.3-1.49v-5.93l-4.54-.33v8c.73 3.84 4.23 4.13 4.23 4.13s.36.02.41.03h10.43s4.46-.36 4.46-4.59v-6.27Z"></path> <path d="M23.09 36.97h21.38c3.72-.74 4.11-4.09 4.11-4.09.18-.99.07-1.8.07-1.8-.11-.67-1.4-3.63-4.19-3.89-1.67-.16-16.5-1.32-16.5-1.32.29 1.47.96 2.21 1.4 2.64 1.03.98 2.67 1.26 2.67 1.26.39.04 11.43.94 11.43.94.35.01 1.01.1 1.01.97 0 .1-.1.87-.94.87H27.54v-6.71l-4.44-.32v11.45ZM68.24 32.52h15.88c.36 0 .76-.21.76-.21.16-.15.3-.41.3-.67 0-.86-.72-.9-1.07-.92 0 0-11.16-.93-11.55-.96 0 0-1.55-.24-2.58-1.22-.45-.42-1.04-.88-1.48-2.4 0 0 14.92.87 16.57 1.02 2.8.27 4.11 3.01 4.23 3.92 0 0 .12.82-.02 1.84 0 0-.58 3.85-4.69 4.09H68.23v-4.48ZM15.47 24.78 7.6 36.96h5.38l7.57-11.64-5.08-.54zM15.65 24.51s1.86-3.03 2.32-3.62c.44-.61 1.02-.86 1.64-.86h8.11v4.12s.41-1.58 1.14-2.33c.68-.71 1.59-1.69 3.67-1.82h15.29v4.52H15.65ZM89.4 24.52V20H73.04c-2.07.13-2.99 1.11-3.67 1.82-.73.75-1.13 2.33-1.13 2.33v.36h21.17ZM48.62 20.01h4.57v4.49h-4.57zM63.63 20.01h4.57v4.49h-4.57z" style="fill: #285089;"></path> <path d="m68.2 26.13-4.49-.27v5.21s-.01 1.5-1.48 1.5h-7.72s-1.3-.1-1.3-1.49v-5.93l-4.54-.33v8c.73 3.84 4.23 4.13 4.23 4.13s.36.02.41.03h10.43s4.46-.36 4.46-4.59v-6.27Z" style="fill: #285089;"></path> <path d="M23.09 36.97h21.38c3.72-.74 4.11-4.09 4.11-4.09.18-.99.07-1.8.07-1.8-.11-.67-1.4-3.63-4.19-3.89-1.67-.16-16.5-1.32-16.5-1.32.29 1.47.96 2.21 1.4 2.64 1.03.98 2.67 1.26 2.67 1.26.39.04 11.43.94 11.43.94.35.01 1.01.1 1.01.97 0 .1-.1.87-.94.87H27.54v-6.71l-4.44-.32v11.45ZM68.24 32.52h15.88c.36 0 .76-.21.76-.21.16-.15.3-.41.3-.67 0-.86-.72-.9-1.07-.92 0 0-11.16-.93-11.55-.96 0 0-1.55-.24-2.58-1.22-.45-.42-1.04-.88-1.48-2.4 0 0 14.92.87 16.57 1.02 2.8.27 4.11 3.01 4.23 3.92 0 0 .12.82-.02 1.84 0 0-.58 3.85-4.69 4.09H68.23v-4.48Z" style="fill: #285089;"></path> </svg>