<svg xmlns="http://www.w3.org/2000/svg" width="62" height="36" viewBox="0 0 62 36">
  <path d="M40,0.0146335328 C39.8206808,0.717043109 39.6338901,1.42676945 39.4620425,2.12917903 C38.6849929,5.31928919 37.9079432,8.50208258 37.1234219,11.6921927 C36.2865992,15.1091227 35.4572481,18.5187358 34.6129538,21.9356657 C34.284202,23.274634 33.6715282,24.4599501 32.6030849,25.3891795 C31.7363757,26.1428064 30.7127622,26.6037627 29.5845458,26.7939986 C28.8747408,26.9110669 28.142521,26.9842346 27.4177727,26.9915513 C19.4754285,27.0061849 11.5330844,26.9988681 3.59074019,26.9915513 C2.94817989,26.9915513 2.32056285,26.8817998 1.73030397,26.6183962 C0.758991887,26.1940238 0.258392583,25.4257633 0.086545061,24.4306831 C-0.115188987,23.2965843 0.0641301668,22.1844358 0.333108897,21.0796041 C1.06532877,18.0797298 1.78260539,15.0725388 2.55218342,12.0799814 C2.97806641,10.4044419 3.86719055,8.99230593 5.39140336,8.0411263 C6.33282891,7.45578498 7.37138568,7.12653049 8.48465875,7.05336283 C9.00767295,7.02409576 9.53068715,7.00946223 10.0537013,7.00946223 C15.149354,7.00946223 20.2524782,7.00946223 25.3481308,7.00946223 C25.4527337,7.00946223 25.5573365,7.00946223 25.7067691,7.00946223 C25.6245812,7.37530055 25.5498649,7.71918857 25.4676769,8.05575983 C25.1389251,9.39472808 24.8101734,10.7263796 24.4888932,12.0726646 C24.4365918,12.3068011 24.3394606,12.3799688 24.1003684,12.372652 C21.4479392,12.3653353 18.7880385,12.3653353 16.1356093,12.372652 C15.8068575,12.372652 15.4855774,12.4092358 15.1568256,12.4531364 C14.5441518,12.5482544 14.1182688,12.9140927 13.931478,13.470167 C13.7148007,14.0994089 13.5653681,14.7432843 13.4009922,15.3944765 C13.0348823,16.8797801 12.6613007,18.3650837 12.3250773,19.8503873 C12.2428893,20.2089089 12.2354177,20.5966975 12.250361,20.9625358 C12.2653042,21.3283741 12.5043964,21.5698274 12.8555631,21.6722621 C13.0797121,21.738113 13.3188043,21.7820136 13.5504248,21.7820136 C16.5017192,21.7893304 19.4530136,21.7893304 22.4043081,21.7820136 C23.5026379,21.7820136 24.331989,21.3064238 24.735457,20.2893933 C25.019379,19.5723502 25.2136415,18.8114065 25.4004322,18.0577795 C26.1102372,15.1896071 26.8050989,12.3214347 27.5074323,9.45326222 C28.2545954,6.37290355 29.0092302,3.29254489 29.7563934,0.212186226 C29.7713366,0.146335328 29.7713366,0.0731676642 29.7713366,0 C33.1784005,0.0146335328 36.5929361,0.0146335328 40,0.0146335328 Z"/>
  <path d="M20 35.9925469C20.214574 35.3590337 20.4143498 34.770239 20.6141256 34.1888975 21.1542601 32.616294 21.6943947 31.0436906 22.2271301 29.4710871 22.3011212 29.2624004 22.4047086 29.2027756 22.6118835 29.2027756 24.8020181 29.2102287 26.9921527 29.232588 29.1896865 29.1953225 31.157848 29.1580571 32.9262337 28.5096376 34.4060544 27.1755333 35.3531396 26.3184271 35.8340813 25.2228219 36.1300455 23.9856078 37.380494 18.7535338 38.667938 13.5289129 39.9405837 8.29683886 40.0219739 7.94654331 40.1255613 7.60370085 40.1921533 7.25340529 40.2291488 7.04471858 40.3327362 7 40.5251129 7 42.4858753 7.0074531 44.4540368 7.0074531 46.4147992 7.0074531 47.5246648 7.0074531 48.6419294 7.0074531 49.7517949 7.0074531 49.9589698 7.0074531 50.0403599 7.03726548 49.9811671 7.28321768 49.041481 11.1960935 48.1091939 15.1089694 47.1695078 19.0218453 46.5479831 21.6304292 45.9412566 24.2390131 45.2827364 26.8326908 44.7721983 28.8375739 43.9287005 30.693395 42.5968619 32.2958108 41.0208528 34.1963506 39.030494 35.4037522 36.6109872 35.8509381 36.0634535 35.9478283 35.5011217 35.9925469 34.9461889 35.9925469 30.0775789 36 25.2089688 36 20.3329597 36 20.2441704 35.9925469 20.1479821 35.9925469 20 35.9925469zM47 26.9780461C47.0993884 26.56824 47.1911315 26.1730699 47.2905199 25.7778997 48.4067278 21.2261251 49.530581 16.6743505 50.646789 12.1225759 51.0519878 10.4906696 51.4571865 8.8514453 51.8470948 7.21953897 51.8853211 7.05854372 51.9617737 7 52.1376147 7 55.3562691 7.00731797 58.5749235 7 61.793578 7 61.8470948 7 61.9082569 7.00731797 62 7.01463593 61.8929664 7.45371387 61.793578 7.87083791 61.6941896 8.28796195 60.4097859 13.5129894 59.1253823 18.7306989 57.8409786 23.9557263 57.6116208 24.8997439 57.3746177 25.8364435 57.1452599 26.780461 57.1070336 26.9268203 57.0535168 27 56.8776758 27 53.6360856 26.992682 50.3868502 27 47.1452599 27 47.1146789 26.992682 47.0764526 26.9853641 47 26.9780461z"/>
</svg>
