<svg xmlns="http://www.w3.org/2000/svg" viewBox="0 0 97 57" class="w-24 h-14 opacity-50 hover:opacity-100 grayscale hover:grayscale-0 transition"> <path d="M.5.5h96v56H.5z" style="fill: #ffffff;"></path> <path d="M48.5 48.9h-.6l4.17-11.46h5.74c1.01 0 2.12-.77 2.46-1.72l4.52-12.42c.74-2.03-.43-3.7-2.59-3.7h-7.96l-6.68 18.35-3.79 10.41C34.79 46.23 28.1 38.15 28.1 28.5S34.4 11.25 43 8.85l-3.91 10.74-6.5 17.84h4.33l5.53-15.16h3.25l-5.53 15.16h4.33l5.15-14.14c.74-2.03-.43-3.7-2.59-3.7h-3.64L47.6 8.12c.3 0 .61-.02.92-.02 11.27 0 20.4 9.13 20.4 20.4s-9.13 20.4-20.4 20.4Zm12.35-26.64H57.6l-4.55 12.49h3.25l4.55-12.49Z" style="fill: #0d96d6;"></path> </svg>