<svg xmlns="http://www.w3.org/2000/svg" viewBox="0 0 97 57" class="w-24 h-14 opacity-50 hover:opacity-100 grayscale hover:grayscale-0 transition"> <path d="M.5.5h96v56H.5z" style="fill: #ffffff;"></path> <path d="M15.71 16.18h4.79v4.79h-4.79z" style="fill: #43abda;"></path> <path d="M20.31 40.92V23.85H15.8v17.06h4.51Zm29.91.19v-4.22c-.67 0-1.25 0-1.63-.1-.48-.1-.86-.19-1.05-.48-.19-.19-.38-.58-.48-1.05-.1-.38-.1-.96-.1-1.63v-5.94h3.26v-3.83h-3.26v-6.71h-4.51v16.49c0 1.44.1 2.59.38 3.55.19.96.67 1.73 1.25 2.3.58.58 1.34.96 2.21 1.25s2.11.38 3.45.38h.48Zm25.79-.19V15.8H71.5v25.12h4.51ZM38.05 25.48c-1.25-1.34-2.97-2.01-5.27-2.01-1.05 0-2.11.19-2.97.67s-1.63 1.05-2.21 1.82l-.19.29v-2.49H23v17.06h4.41V32.1c0-1.63.48-2.78 1.15-3.55.77-.77 1.73-1.25 2.88-1.25 1.34 0 2.3.38 2.97 1.15.67.77.96 1.92.96 3.26v9.01h4.51v-9.49c.1-2.49-.58-4.41-1.82-5.75Zm31.16 6.81c0-1.25-.19-2.4-.67-3.45s-1.05-2.01-1.82-2.78a9.639 9.639 0 0 0-2.78-1.92c-1.05-.48-2.3-.67-3.55-.67s-2.4.19-3.45.67-2.01 1.15-2.78 1.92-1.44 1.73-1.92 2.78-.67 2.21-.67 3.45.19 2.4.67 3.45 1.05 2.01 1.82 2.78 1.73 1.44 2.88 1.92 2.3.67 3.64.67c3.83 0 6.23-1.73 7.57-3.36l-3.26-2.49c-.67.77-2.3 1.92-4.31 1.92-1.25 0-2.3-.29-3.07-.86s-1.34-1.34-1.63-2.4v-.19H69.3v-1.44h-.1Zm-13.42-1.53c0-1.25 1.44-3.45 4.51-3.45s4.51 2.21 4.51 3.45H55.8ZM81.19 38.81c-.1-.19-.19-.38-.38-.58-.19-.19-.29-.29-.58-.38-.19-.1-.38-.1-.67-.1-.19 0-.48 0-.67.1s-.38.19-.58.38c-.19.19-.29.29-.38.58-.1.19-.1.38-.1.67 0 .19 0 .48.1.67s.19.38.38.58c.19.19.29.29.58.38.19.1.38.1.67.1.19 0 .48 0 .67-.1s.38-.19.58-.38c.19-.19.29-.29.38-.58.1-.19.1-.38.1-.67s0-.48-.1-.67Zm-.29 1.15c-.1.19-.19.29-.29.48-.1.1-.29.19-.48.29-.19.1-.38.1-.58.1s-.38 0-.58-.1-.29-.19-.48-.29c-.1-.1-.19-.29-.29-.48-.1-.19-.1-.38-.1-.58s0-.38.1-.58.19-.29.29-.48c.1-.1.29-.19.48-.29.19-.1.38-.1.58-.1s.38 0 .58.1.29.19.48.29c.1.1.19.29.29.48.1.19.1.38.1.58s0 .38-.1.58Zm-.96-.38c.1 0 .19-.1.29-.19.1-.1.1-.19.1-.38s-.1-.29-.19-.38-.29-.19-.48-.19h-.77v1.92h.38v-.77h.29l.48.77h.38l-.48-.77Zm-.19-.29h-.48v-.58h.67s.1 0 .1.1v.38l-.1.1h-.19Z" style="fill: #187ec2;"></path> </svg>