<svg xmlns="http://www.w3.org/2000/svg" viewBox="0 0 97 57" class="w-24 h-14 opacity-50 hover:opacity-100 grayscale hover:grayscale-0 transition"> <path d="M.5.5h96v56H.5z" style="fill: #ffffff;"></path> <path d="M13.32 16.77h70.36v23.45H13.32z" style="fill: #c7362e;"></path> <path d="M43.97 24.68c-1.04 0-2.22.48-2.94 1.45v-1.29h-2.48v9.03h2.48v-5.14c0-.92.72-1.91 2.04-1.91 1.02 0 2.09.71 2.09 1.91v5.14h2.48v-5.6c0-2.08-1.49-3.58-3.67-3.58M65.25 24.83l-2.23 6.15-2.25-6.15h-2.83l3.72 9.02h2.71l3.72-9.02h-2.84zM35.91 31.08c-1.04.77-1.64.95-2.59.95-.86 0-1.53-.26-2-.73l6.34-2.63c-.14-.98-.51-1.86-1.08-2.52-.83-.97-2.07-1.48-3.57-1.48-2.73 0-4.78 2.01-4.78 4.67s2.06 4.67 5.05 4.67c1.68 0 3.39-.8 4.2-1.72l-1.57-1.2Zm-4.76-3.53c.42-.57 1.09-.9 1.91-.9.89 0 1.57.51 1.92 1.26l-4.33 1.8c-.12-.92.11-1.64.5-2.16ZM28 31.58h-5.64v-9.45h-2.51v11.73H28v-2.28zM72.54 34.01c-2.71 0-4.83-2.02-4.83-4.67s2.14-4.67 4.87-4.67 4.83 2.02 4.83 4.67c0 2.62-2.14 4.67-4.87 4.67m0-7.21c-1.39 0-2.39 1.05-2.39 2.54s1.06 2.54 2.42 2.54 2.39-1.08 2.39-2.54-1.06-2.54-2.42-2.54M53.45 34.01c-2.71 0-4.83-2.02-4.83-4.67s2.14-4.67 4.87-4.67 4.83 2.02 4.83 4.67-2.14 4.67-4.87 4.67m0-7.21c-1.39 0-2.39 1.05-2.39 2.54s1.06 2.54 2.42 2.54 2.39-1.08 2.39-2.54c0-1.42-1.06-2.54-2.42-2.54M77.74 32.79h-.4v-.23h1.05v.23h-.4v1.07h-.25v-1.07Zm.93-.23h.26l.39.62.39-.62h.26v1.3h-.24v-.92l-.4.62h-.03l-.4-.62v.92h-.24v-1.3Z" style="fill: #ffffff;"></path> </svg>