<svg xmlns="http://www.w3.org/2000/svg" viewBox="0 0 97 57" class="w-24 h-14 opacity-50 hover:opacity-100 grayscale hover:grayscale-0 transition"> <path d="M.5.5h96v56H.5z" style="fill: #ffffff;"></path> <path d="M34.56 37.68a3.34 3.34 0 0 1-3.37-3.37h-2.98c0 3.53 2.79 6.23 6.34 6.23s6.34-2.7 6.34-6.23h-2.98c.01 1.91-1.48 3.37-3.37 3.37m6.24-13.58v-2.33h-4.13c-.67-.23-1.38-.37-2.1-.37-3.55 0-6.34 2.7-6.34 6.23s2.79 6.23 6.34 6.23 6.34-2.7 6.34-6.23c0-1.2-.32-2.36-.97-3.23l.85-.3Zm-6.24 6.92c-1.87 0-3.37-1.49-3.37-3.41s1.49-3.37 3.37-3.37 3.39 1.47 3.39 3.39c.01 1.93-1.48 3.39-3.39 3.39m-24.12 2.49h2.93V16.78h-2.93V33.5ZM20.84 21.4c-3.55 0-6.34 2.7-6.34 6.23s2.79 6.23 6.34 6.23 6.34-2.7 6.34-6.23-2.79-6.23-6.34-6.23m0 9.62c-1.88 0-3.37-1.49-3.37-3.41s1.49-3.37 3.37-3.37 3.39 1.47 3.39 3.39-1.48 3.39-3.39 3.39m21.21 2.49h2.93V21.77h-2.93v11.74Zm30.22-9.27c1.24 0 2.24.64 3.02 1.54l2.03-2.01c-1.15-1.45-2.95-2.36-5.02-2.36-3.55 0-6.34 2.7-6.34 6.23s2.79 6.23 6.34 6.23c2.06 0 3.87-.92 5.02-2.36l-2.03-2.01c-.76.87-1.79 1.54-3.05 1.54-1.88 0-3.32-1.47-3.32-3.39 0-1.94 1.45-3.41 3.34-3.41m18.24-3.85c0-.23-.16-.32-.39-.32h-.37v1.06h.14v-.41h.23l.25.41h.16l-.28-.44c.16-.02.25-.11.25-.3m-.62.18v-.37h.23c.18 0 .25.07.25.18s-.07.18-.25.18h-.23Zm-4.96.83c-1.45 0-2.68.55-3.55 1.49V16.8h-2.93v16.72h2.93v-6.39c0-1.7 1.08-2.86 2.86-2.86 1.68 0 2.59 1.03 2.59 2.86v6.39h2.93V26.6c.01-3.26-2.03-5.21-4.83-5.21m-25.96 0c-3.53 0-6.21 2.7-6.21 6.3s2.45 6.16 6.25 6.16c2.1 0 3.99-.78 5.37-2.24l-1.96-1.94c-.97.92-1.99 1.59-3.32 1.59-1.61 0-2.82-.92-3.23-2.45h9.14v-.71c-.01-4.02-2.48-6.7-6.03-6.7m-3.18 5.01c.39-1.56 1.59-2.42 3.11-2.42s2.68.85 3.05 2.42h-6.16Zm34.34-6.83c-.57 0-1.03.46-1.03 1.01s.46 1.03 1.03 1.03 1.01-.46 1.01-1.03c0-.55-.46-1.01-1.01-1.01m0 1.91c-.51 0-.9-.39-.9-.9s.39-.87.9-.87.87.39.87.87c0 .51-.39.9-.87.9M43.5 16.47c-1.08 0-1.93.85-1.93 1.94s.85 1.92 1.93 1.92 1.96-.85 1.96-1.92c.01-1.09-.84-1.94-1.96-1.94m7.26 1.68h-2.93v3.62h-1.59v2.61h1.59v9.15h2.93v-9.15h1.61v-2.61h-1.61v-3.62Z" style="fill: #060606;"></path> </svg>