<svg xmlns="http://www.w3.org/2000/svg" width="117" height="34" viewBox="0 0 117 34">
  <g fill="none">
    <path fill="#737373" d="M43.35,23.01 C43.35,23.5 43.52,23.91 43.86,24.25 C44.2,24.59 44.81,24.98 45.69,25.43 C46.87,26.04 47.72,26.66 48.23,27.27 C48.74,27.88 49,28.59 49,29.4 C49,30.58 48.57,31.5 47.72,32.17 C46.87,32.84 45.78,33.17 44.45,33.17 C43.69,33.17 42.99,33.09 42.36,32.94 C41.73,32.79 41.25,32.61 40.93,32.4 L40.93,29.87 C41.34,30.25 41.86,30.56 42.5,30.81 C43.14,31.06 43.77,31.18 44.39,31.18 C45.06,31.18 45.6,31.05 45.99,30.79 C46.39,30.53 46.58,30.14 46.58,29.62 C46.58,29.16 46.39,28.75 46.01,28.37 C45.63,28 44.93,27.54 43.91,27.01 C42.91,26.49 42.16,25.93 41.67,25.32 C41.18,24.71 40.93,23.99 40.93,23.16 C40.93,22.07 41.36,21.17 42.21,20.47 C43.06,19.77 44.15,19.42 45.48,19.42 C46.07,19.42 46.64,19.47 47.19,19.58 C47.74,19.69 48.15,19.8 48.41,19.93 L48.41,22.35 C48.05,22.06 47.61,21.83 47.09,21.66 C46.57,21.49 46.05,21.41 45.52,21.41 C44.87,21.41 44.35,21.56 43.94,21.85 C43.56,22.14 43.35,22.53 43.35,23.01 Z M58.99,23.41 L58.99,32.94 L56.73,32.94 L56.73,31.69 L56.69,31.69 C56.39,32.12 56,32.46 55.5,32.71 C55,32.95 54.44,33.08 53.83,33.08 C52.72,33.08 51.88,32.77 51.3,32.14 C50.72,31.51 50.43,30.54 50.43,29.22 L50.43,23.43 L52.7,23.43 L52.7,28.95 C52.7,29.75 52.86,30.36 53.18,30.76 C53.5,31.16 53.98,31.37 54.62,31.37 C55.26,31.37 55.77,31.15 56.15,30.7 C56.53,30.25 56.72,29.67 56.72,28.94 L56.72,23.42 L58.99,23.42 L58.99,23.41 Z M65.74,23.25 C65.92,23.25 66.08,23.26 66.22,23.29 C66.36,23.31 66.48,23.35 66.58,23.38 L66.58,25.65 C66.46,25.56 66.29,25.48 66.07,25.4 C65.84,25.32 65.57,25.28 65.25,25.28 C64.7,25.28 64.23,25.51 63.85,25.98 C63.47,26.44 63.28,27.16 63.28,28.12 L63.28,32.93 L61.04,32.93 L61.04,23.4 L63.28,23.4 L63.28,24.9 L63.32,24.9 C63.52,24.38 63.83,23.97 64.25,23.68 C64.66,23.4 65.16,23.25 65.74,23.25 Z M72.36,18.66 C72.63,18.66 72.87,18.67 73.08,18.7 C73.29,18.73 73.48,18.77 73.64,18.83 L73.64,20.77 C73.57,20.73 73.44,20.67 73.25,20.61 C73.06,20.55 72.85,20.52 72.61,20.52 C72.14,20.52 71.78,20.67 71.53,20.96 C71.28,21.25 71.15,21.69 71.15,22.26 L71.15,23.41 L73.27,23.41 L73.27,25.25 L71.15,25.25 L71.15,32.94 L68.88,32.94 L68.88,25.25 L67.29,25.25 L67.29,23.41 L68.88,23.41 L68.88,22.08 C68.88,21.08 69.21,20.26 69.86,19.62 C70.5,18.98 71.34,18.66 72.36,18.66 Z M81.88,26.97 C81.88,28.54 81.88,29.78 81.88,30.68 C81.88,31.59 81.93,32.34 82.02,32.94 L79.79,32.94 L79.68,31.92 L79.64,31.92 C79.36,32.3 78.98,32.6 78.52,32.8 C78.06,33 77.48,33.1 76.78,33.1 C75.94,33.1 75.24,32.85 74.67,32.34 C74.1,31.83 73.82,31.14 73.82,30.28 C73.82,29.35 74.18,28.61 74.91,28.05 C75.64,27.49 76.77,27.12 78.33,26.92 L79.69,26.75 C79.69,26.12 79.54,25.67 79.24,25.41 C78.94,25.14 78.5,25.01 77.91,25 C77.27,25 76.66,25.1 76.08,25.29 C75.51,25.48 75.06,25.71 74.75,25.98 L74.75,23.93 C75.06,23.76 75.54,23.59 76.19,23.43 C76.84,23.26 77.52,23.18 78.24,23.18 C79.43,23.18 80.33,23.51 80.94,24.16 C81.57,24.8 81.88,25.74 81.88,26.97 Z M78.7,28.39 C77.71,28.51 77.01,28.7 76.61,28.96 C76.21,29.23 76,29.59 76,30.05 C76,30.45 76.12,30.76 76.36,31 C76.6,31.24 76.96,31.35 77.44,31.35 C78.14,31.35 78.69,31.14 79.1,30.71 C79.51,30.28 79.71,29.74 79.72,29.09 L79.72,28.27 L78.7,28.39 Z M88.54,31.31 C88.87,31.31 89.24,31.23 89.64,31.08 C90.04,30.93 90.41,30.72 90.75,30.47 L90.75,32.56 C90.39,32.76 89.99,32.92 89.53,33.02 C89.08,33.13 88.58,33.18 88.03,33.18 C86.63,33.18 85.49,32.74 84.61,31.85 C83.73,30.96 83.29,29.83 83.29,28.45 C83.29,26.92 83.74,25.66 84.63,24.66 C85.53,23.67 86.8,23.17 88.44,23.17 C88.86,23.17 89.28,23.22 89.71,23.33 C90.14,23.44 90.48,23.56 90.73,23.71 L90.73,25.86 C90.38,25.61 90.03,25.41 89.67,25.27 C89.31,25.13 88.94,25.06 88.56,25.06 C87.68,25.06 86.96,25.35 86.42,25.92 C85.88,26.49 85.6,27.27 85.6,28.25 C85.6,29.21 85.86,29.96 86.38,30.5 C86.93,31.04 87.64,31.31 88.54,31.31 Z M99.73,30.54 L99.73,32.38 C99.36,32.61 98.87,32.8 98.27,32.95 C97.67,33.1 97.03,33.17 96.35,33.17 C94.9,33.17 93.77,32.74 92.96,31.88 C92.15,31.02 91.75,29.83 91.75,28.29 C91.75,26.81 92.18,25.6 93.04,24.64 C93.9,23.69 94.99,23.21 96.32,23.21 C97.64,23.21 98.66,23.61 99.39,24.42 C100.12,25.23 100.49,26.34 100.49,27.76 L100.49,28.84 L93.96,28.84 C94.06,29.8 94.37,30.47 94.88,30.85 C95.4,31.23 96.06,31.42 96.88,31.42 C97.42,31.42 97.93,31.34 98.42,31.17 C98.92,31.02 99.35,30.8 99.73,30.54 Z M98.29,27.21 C98.29,26.47 98.12,25.9 97.78,25.51 C97.44,25.12 96.95,24.93 96.33,24.93 C95.79,24.93 95.31,25.12 94.88,25.51 C94.45,25.9 94.17,26.46 94.03,27.21 L98.29,27.21 Z M55.7,1.37 L55.7,14.66 L53.39,14.66 L53.39,4.24 L53.35,4.24 L49.23,14.66 L47.7,14.66 L43.47,4.24 L43.44,4.24 L43.44,14.66 L41.31,14.66 L41.31,1.37 L44.62,1.37 L48.44,11.22 L48.5,11.22 L52.53,1.37 L55.7,1.37 L55.7,1.37 Z M57.63,2.38 C57.63,2.01 57.76,1.7 58.03,1.45 C58.3,1.2 58.62,1.07 58.99,1.07 C59.39,1.07 59.71,1.2 59.97,1.45 C60.23,1.71 60.36,2.01 60.36,2.37 C60.36,2.73 60.23,3.04 59.96,3.29 C59.69,3.54 59.37,3.66 58.99,3.66 C58.61,3.66 58.28,3.53 58.02,3.28 C57.76,3.04 57.63,2.74 57.63,2.38 Z M60.1,5.13 L60.1,14.66 L57.86,14.66 L57.86,5.13 L60.1,5.13 L60.1,5.13 Z M66.91,13.03 C67.24,13.03 67.61,12.95 68.01,12.8 C68.41,12.65 68.78,12.44 69.12,12.19 L69.12,14.28 C68.76,14.48 68.36,14.64 67.9,14.74 C67.45,14.85 66.95,14.9 66.4,14.9 C65,14.9 63.86,14.46 62.98,13.57 C62.1,12.68 61.66,11.55 61.66,10.17 C61.66,8.64 62.11,7.38 63,6.38 C63.9,5.39 65.17,4.89 66.81,4.89 C67.23,4.89 67.65,4.94 68.08,5.05 C68.51,5.16 68.85,5.28 69.1,5.43 L69.1,7.58 C68.75,7.33 68.4,7.13 68.04,6.99 C67.68,6.85 67.31,6.78 66.93,6.78 C66.05,6.78 65.33,7.07 64.79,7.64 C64.27,8.22 64,9 64,9.97 C64,10.93 64.26,11.68 64.78,12.22 C65.3,12.76 66.01,13.03 66.91,13.03 Z M75.51,4.98 C75.69,4.98 75.85,4.99 75.99,5.02 C76.13,5.05 76.25,5.08 76.35,5.11 L76.35,7.38 C76.23,7.29 76.06,7.21 75.84,7.13 C75.61,7.05 75.34,7.01 75.02,7.01 C74.47,7.01 74,7.24 73.62,7.71 C73.24,8.17 73.05,8.89 73.05,9.85 L73.05,14.66 L70.81,14.66 L70.81,5.13 L73.05,5.13 L73.05,6.63 L73.09,6.63 C73.29,6.11 73.6,5.7 74.02,5.41 C74.43,5.12 74.93,4.98 75.51,4.98 Z M76.47,10.04 C76.47,8.46 76.91,7.22 77.8,6.3 C78.69,5.38 79.93,4.92 81.51,4.92 C83,4.92 84.16,5.36 85,6.25 C85.84,7.14 86.26,8.33 86.26,9.84 C86.26,11.38 85.81,12.61 84.93,13.53 C84.04,14.44 82.83,14.9 81.3,14.9 C79.82,14.9 78.65,14.47 77.78,13.6 C76.91,12.72 76.47,11.54 76.47,10.04 Z M78.81,9.96 C78.81,10.96 79.04,11.71 79.49,12.24 C79.94,12.77 80.59,13.03 81.43,13.03 C82.25,13.03 82.87,12.77 83.29,12.24 C83.72,11.71 83.93,10.94 83.93,9.9 C83.93,8.87 83.71,8.1 83.27,7.58 C82.83,7.06 82.21,6.8 81.41,6.8 C80.59,6.8 79.95,7.07 79.5,7.62 C79.04,8.17 78.81,8.95 78.81,9.96 Z M89.6,7.64 C89.6,7.96 89.7,8.21 89.91,8.4 C90.11,8.58 90.56,8.81 91.26,9.09 C92.16,9.45 92.78,9.85 93.15,10.3 C93.51,10.75 93.69,11.29 93.69,11.93 C93.69,12.83 93.35,13.55 92.66,14.09 C91.97,14.63 91.04,14.91 89.87,14.91 C89.47,14.91 89.04,14.86 88.56,14.77 C88.08,14.67 87.67,14.55 87.34,14.4 L87.34,12.19 C87.75,12.47 88.19,12.7 88.66,12.87 C89.13,13.04 89.56,13.12 89.94,13.12 C90.45,13.12 90.82,13.05 91.06,12.91 C91.3,12.77 91.42,12.53 91.42,12.2 C91.42,11.89 91.29,11.63 91.04,11.42 C90.79,11.21 90.32,10.96 89.62,10.68 C88.79,10.33 88.2,9.94 87.86,9.51 C87.51,9.08 87.34,8.53 87.34,7.86 C87.34,7 87.68,6.3 88.36,5.74 C89.04,5.19 89.93,4.91 91.02,4.91 C91.35,4.91 91.73,4.95 92.14,5.02 C92.55,5.09 92.9,5.19 93.18,5.31 L93.18,7.44 C92.88,7.24 92.54,7.07 92.14,6.93 C91.74,6.79 91.35,6.72 90.96,6.72 C90.53,6.72 90.2,6.8 89.96,6.97 C89.72,7.12 89.6,7.35 89.6,7.64 Z M94.65,10.04 C94.65,8.46 95.09,7.22 95.98,6.3 C96.87,5.38 98.11,4.92 99.69,4.92 C101.18,4.92 102.34,5.36 103.18,6.25 C104.02,7.14 104.44,8.33 104.44,9.84 C104.44,11.38 103.99,12.61 103.11,13.53 C102.22,14.44 101.01,14.9 99.48,14.9 C98,14.9 96.83,14.47 95.96,13.6 C95.08,12.72 94.65,11.54 94.65,10.04 Z M96.99,9.96 C96.99,10.96 97.22,11.71 97.67,12.24 C98.12,12.77 98.77,13.03 99.61,13.03 C100.43,13.03 101.05,12.77 101.47,12.24 C101.9,11.71 102.11,10.94 102.11,9.9 C102.11,8.87 101.89,8.1 101.45,7.58 C101.01,7.06 100.39,6.8 99.59,6.8 C98.77,6.8 98.13,7.07 97.68,7.62 C97.21,8.17 96.99,8.95 96.99,9.96 Z M111.88,6.97 L108.54,6.97 L108.54,14.66 L106.27,14.66 L106.27,6.97 L104.68,6.97 L104.68,5.13 L106.27,5.13 L106.27,3.8 C106.27,2.8 106.6,1.98 107.25,1.34 C107.9,0.7 108.74,0.38 109.76,0.38 C110.03,0.38 110.27,0.39 110.48,0.42 C110.69,0.45 110.88,0.49 111.04,0.55 L111.04,2.49 C110.97,2.45 110.84,2.39 110.65,2.33 C110.46,2.27 110.25,2.24 110.01,2.24 C109.54,2.24 109.18,2.39 108.93,2.68 C108.68,2.97 108.55,3.41 108.55,3.98 L108.55,5.13 L111.89,5.13 L111.89,2.99 L114.14,2.3 L114.14,5.13 L116.41,5.13 L116.41,6.97 L114.14,6.97 L114.14,11.43 C114.14,12.02 114.25,12.43 114.46,12.67 C114.67,12.91 115.01,13.03 115.47,13.03 C115.6,13.03 115.76,13 115.94,12.94 C116.12,12.88 116.28,12.8 116.42,12.72 L116.42,14.57 C116.28,14.65 116.04,14.72 115.71,14.79 C115.38,14.86 115.05,14.89 114.73,14.89 C113.78,14.89 113.08,14.64 112.6,14.13 C112.13,13.63 111.89,12.87 111.89,11.85 L111.89,6.97 L111.88,6.97 Z"/>
    <g transform="translate(0 1)">
      <rect width="15" height="15" x=".28" y=".37" fill="#F25022"/>
      <rect width="15" height="15" x="16.84" y=".37" fill="#7FBA00"/>
      <rect width="15" height="15" x=".28" y="16.93" fill="#00A4EF"/>
      <rect width="15" height="15" x="16.84" y="16.93" fill="#FFB900"/>
    </g>
  </g>
</svg>
