<svg xmlns="http://www.w3.org/2000/svg" viewBox="0 0 97 57" class="w-24 h-14 opacity-50 hover:opacity-100 grayscale hover:grayscale-0 transition"> <path d="M.5.5h96v56H.5z" style="fill: #ffffff;"></path> <path d="M4.18 25.15c-.05-.27-.05-.55 0-.71.11-.44.38-.93 1.26-.93.82 0 1.26.49 1.26 1.26v.82h3.4v-.99c0-2.96-2.69-3.46-4.61-3.46-2.41 0-4.44.82-4.77 3.07-.11.6-.11 1.15 0 1.87.6 2.8 5.49 3.62 6.2 5.38.11.33.11.77 0 .99-.11.44-.44.93-1.32.93s-1.37-.49-1.37-1.26V30.8H.5v1.04c0 3.07 2.41 4 4.99 4s4.5-.82 4.83-3.13c.16-1.21.05-1.97 0-2.25-.55-2.85-5.76-3.68-6.14-5.32Zm44.6.05c-.05-.27-.05-.55 0-.71.11-.44.38-.93 1.26-.93.77 0 1.26.49 1.26 1.26v.82h3.4v-.93c0-2.96-2.63-3.4-4.55-3.4-2.41 0-4.39.82-4.77 3.02-.11.6-.11 1.15.05 1.81.6 2.8 5.43 3.57 6.14 5.32.11.33.11.77 0 .99-.11.44-.44.93-1.32.93s-1.37-.49-1.37-1.21v-1.32H45.2v1.04c0 3.02 2.36 3.95 4.94 3.95s4.5-.82 4.77-3.13c.16-1.15.05-1.92 0-2.25-.6-2.85-5.76-3.68-6.14-5.27Zm31.16 7.46L76.7 21.63h-5.1v13.55h3.35l-.22-11.41 3.46 11.41h4.88V21.63h-3.29l.16 11.03ZM15.2 21.64l-2.52 13.71h3.73l1.87-12.73 1.87 12.73h3.68l-2.52-13.71h-6.09Zm20.74 0-1.76 10.7-1.7-10.7h-5.6l-.27 13.71h3.46l.05-12.73 2.36 12.73h3.46l2.36-12.73.11 12.73h3.46l-.33-13.71h-5.6Zm31.87 0h-3.46v10.15c0 .16 0 .38-.05.55-.05.33-.38.99-1.32.99s-1.26-.66-1.32-.99c-.05-.16-.05-.33-.05-.55V21.64h-3.46v9.82c0 .27 0 .77.05.93.22 2.58 2.25 3.4 4.77 3.4s4.55-.82 4.77-3.4c0-.11.05-.66.05-.93v-9.82Zm23.81 6.03v1.97h1.43v1.97c0 .16 0 .38-.05.55-.05.38-.38.99-1.43.99-.99 0-1.32-.6-1.37-.99 0-.16-.05-.33-.05-.55v-6.25c0-.22 0-.44.05-.66.05-.33.38-.99 1.37-.99 1.04 0 1.32.71 1.37.99.05.22.05.55.05.55v.77h3.46v-1.37c-.27-2.58-2.36-3.4-4.83-3.4s-4.5.82-4.83 3.4c0 .22-.05.66-.05.93v5.76c0 .27 0 .44.05.88.22 2.52 2.41 3.4 4.83 3.4s4.61-.88 4.83-3.4c.05-.44.05-.66.05-.88v-3.68h-4.88Z" style="fill: #2e3c86;"></path> </svg>