<?xml version="1.0" encoding="utf-8"?>
<!-- Generator: Adobe Illustrator 25.0.1, SVG Export Plug-In . SVG Version: 6.00 Build 0)  -->
<svg version="1.1" id="Layer_1" xmlns="http://www.w3.org/2000/svg" xmlns:xlink="http://www.w3.org/1999/xlink" x="0px" y="0px"
	 width="57px" height="34px" viewBox="0 0 57 34" style="enable-background:new 0 0 57 34;" xml:space="preserve">
<style type="text/css">
	.st0{fill:#FF6900;}
	.st1{fill:#FFFFFF;}
</style>
<g>
	<path class="st0" d="M41.9,3.6c-3.2-3.2-7.8-3.5-13.4-3.5S18.3,0.4,15.1,3.6s-3.5,7.8-3.5,13.4s0.3,10.2,3.5,13.4S22.9,34,28.5,34
		s10.2-0.3,13.4-3.5c3.2-3.2,3.5-7.8,3.5-13.4S45.1,6.8,41.9,3.6z"/>
	<path class="st1" d="M27.3,23.3c0,0.1-0.1,0.2-0.2,0.2h-2.9c-0.1,0-0.2-0.1-0.2-0.2v-7.6c0-0.1,0.1-0.2,0.2-0.2H27
		c0.1,0,0.2,0.1,0.2,0.2L27.3,23.3z"/>
	<path class="st1" d="M32.9,23.3c0,0.1-0.1,0.2-0.2,0.2H30c-0.1,0-0.2-0.1-0.2-0.2c0,0,0,0,0,0v-6.5c0-1.1-0.1-2.3-0.7-2.9
		c-0.5-0.5-1.5-0.6-2.4-0.6h-5c-0.1,0-0.2,0.1-0.2,0.2v9.9c0,0.1-0.1,0.2-0.2,0.2c0,0,0,0,0,0h-2.8c-0.1,0-0.2-0.1-0.2-0.2V10.7
		c0-0.1,0.1-0.2,0.2-0.2h8c2.1,0,4.3,0.1,5.3,1.2c1.1,1.1,1.2,3.2,1.2,5.3L32.9,23.3z"/>
	<path class="st1" d="M38.6,23.3c0,0.1-0.1,0.2-0.2,0.2h-2.8c-0.1,0-0.2-0.1-0.2-0.2V10.7c0-0.1,0.1-0.2,0.2-0.2h2.8
		c0.1,0,0.2,0.1,0.2,0.2L38.6,23.3z"/>
</g>
</svg>
