<svg width="24" height="24" xmlns="http://www.w3.org/2000/svg" fill-rule="evenodd" clip-rule="evenodd"><path d="M10.837 19.965c-.276.023-.555.035-.837.035-5.519 0-10-4.481-10-10s4.481-10 10-10 10 4.481 10 10c0 .27-.011.537-.032.802.901 1.118 1.441 2.54 1.441 4.087 0 1.254-.354 2.425-.967 3.419l3.558 3.566-2.121 2.126-3.559-3.567c-.992.615-2.16.97-3.411.97-1.541 0-2.957-.539-4.072-1.438zm4.072-9.56c2.484 0 4.5 2.02 4.5 4.509 0 2.489-2.016 4.509-4.5 4.509s-4.5-2.02-4.5-4.509c0-2.489 2.016-4.509 4.5-4.509zm-11.33 4.365c1.304 1.752 3.308 2.953 5.596 3.188-.489-.915-.766-1.96-.766-3.069l.002-.147c-.865-.29-1.625-.811-2.206-1.488l-2.626 1.516zm9.83 2.624h-1v-2.004h1v2.004zm2 0h-1v-3.006h1v3.006zm2 0h-1v-4.96h1v4.96zm-8.409-15.332c-3.944.493-7 3.861-7 7.938 0 1.074.212 2.099.597 3.035l2.636-1.522c-.151-.478-.233-.986-.233-1.513 0-2.417 1.719-4.436 4-4.9v-3.038zm3.728 6.69c-.473-1.033-1.517-1.752-2.728-1.752-1.656 0-3 1.344-3 3 0 1.219.728 2.268 1.773 2.738.648-1.854 2.11-3.327 3.955-3.986zm-1.728-6.69v3.038c1.746.355 3.162 1.621 3.731 3.278l.178-.002c1.1 0 2.136.274 3.045.758-.397-3.679-3.293-6.615-6.954-7.072z"/></svg>