<?xml version="1.0" encoding="iso-8859-1"?>
<!-- Uploaded to: SVG Repo, www.svgrepo.com, Generator: SVG Repo Mixer Tools -->
<!DOCTYPE svg PUBLIC "-//W3C//DTD SVG 1.1//EN" "http://www.w3.org/Graphics/SVG/1.1/DTD/svg11.dtd">
<svg fill="#000000" version="1.1" id="Capa_1" xmlns="http://www.w3.org/2000/svg" xmlns:xlink="http://www.w3.org/1999/xlink" 
	 width="800px" height="800px" viewBox="0 0 958.381 958.381"
	 xml:space="preserve">
<g>
	<g>
		<path d="M735.694,119.434C665.042,79.828,586.32,58.893,508.04,58.893c-78.008,0-155.26,20.637-225.292,59.951L205.906,0
			L11.831,434.313l456.166-30.146l-66.673-103.427c37.182-15.343,74.674-23.099,111.846-23.099
			c94.911,0,182.16,50.764,245.676,142.942l20.084,29.147l159.382-131.183l-16.477-24.484
			C871.433,219.174,808.807,160.419,735.694,119.434z M791.302,355.363c-32.774-40.852-70.408-73.643-112.216-97.729
			c-51.822-29.854-107.645-44.992-165.917-44.992c-58.677,0-117.393,15.447-174.516,45.913l-31.15,16.613l46.041,71.421
			l-238.357,15.753L216.374,135.9l46.634,72.124l27.327-17.818c66.54-43.382,141.821-66.313,217.705-66.313
			c67.175,0,134.906,18.064,195.87,52.24c56.209,31.51,105.525,75.243,146.922,130.233L791.302,355.363z"/>
		<path d="M490.383,554.212l66.673,103.427c-37.182,15.343-74.673,23.1-111.846,23.1c-94.91,0-182.159-50.765-245.675-142.942
			l-20.084-29.148L20.069,639.831l16.477,24.483c50.4,74.89,113.026,133.643,186.141,174.627
			c70.647,39.603,149.368,60.538,227.651,60.547c0.016,0,0.024,0,0.041,0c77.981-0.001,155.228-20.641,225.253-59.951
			l76.843,118.844L946.55,524.066L490.383,554.212z M742.007,822.479l-46.634-72.124l-27.328,17.818
			c-66.542,43.384-141.806,66.312-217.667,66.312c-0.009,0-0.025,0-0.034,0c-67.18-0.006-134.912-18.072-195.874-52.244
			c-56.21-31.511-105.527-75.24-146.921-130.229l59.53-48.998c32.776,40.853,70.408,73.644,112.216,97.729
			c51.822,29.854,107.644,44.991,165.916,44.991c58.678,0,117.394-15.447,174.516-45.912l31.15-16.613l-46.041-71.421
			l238.357-15.752L742.007,822.479z"/>
	</g>
</g>
</svg>